<?xml version="1.0" encoding="iso-8859-1"?>
<!-- Generator: Adobe Illustrator 19.0.0, SVG Export Plug-In . SVG Version: 6.00 Build 0)  -->
<svg version="1.1" id="Layer_1" xmlns="http://www.w3.org/2000/svg" xmlns:xlink="http://www.w3.org/1999/xlink" x="0px" y="0px"
	 viewBox="0 0 508 508" style="enable-background:new 0 0 508 508;" xml:space="preserve">
<circle style="fill:#324A5E;" cx="254" cy="254" r="254"/>
<path style="fill:#FFFFFF;" d="M378.8,289.6H131.6c-8.8,0-16-7.2-16-16V114.4c0-8.8,7.2-16,16-16h247.2c8.8,0,16,7.2,16,16v158.8
	C394.8,282.4,387.6,289.6,378.8,289.6z"/>
<rect x="131.6" y="117.6" style="fill:#54C0EB;" width="247.6" height="152.8"/>
<path style="fill:#E6E9EE;" d="M416.8,409.6H91.2c-6.4,0-11.2-6.4-9.2-12.4l31.6-100.8c1.2-4,5.2-6.8,9.2-6.8h262.8
	c4.4,0,8,2.8,9.2,6.8l31.6,100.8C428,403.2,423.6,409.6,416.8,409.6z"/>
<g>
	<path style="fill:#ACB3BA;" d="M404.4,358.8l-18-57.2c-0.8-3.2-3.6-5.2-6.8-5.2H128c-3.2,0-6,2-6.8,5.2l-18,57.2
		c-0.8,2.8,1.2,5.2,4,5.2h293.2C403.6,364.4,405.6,361.6,404.4,358.8z"/>
	<path style="fill:#ACB3BA;" d="M289.2,397.6h-70.4c-1.2,0-2.4-1.2-2-2.8l4.4-19.2c0.4-0.8,1.2-1.6,2-1.6h61.6c1.2,0,2,0.8,2,1.6
		l4.4,19.2C291.6,396.4,290.8,397.6,289.2,397.6z"/>
</g>
<g>
</g>
<g>
</g>
<g>
</g>
<g>
</g>
<g>
</g>
<g>
</g>
<g>
</g>
<g>
</g>
<g>
</g>
<g>
</g>
<g>
</g>
<g>
</g>
<g>
</g>
<g>
</g>
<g>
</g>
</svg>
