<?xml version="1.0" encoding="iso-8859-1"?>
<!-- Generator: Adobe Illustrator 19.0.0, SVG Export Plug-In . SVG Version: 6.00 Build 0)  -->
<svg version="1.1" id="Layer_1" xmlns="http://www.w3.org/2000/svg" xmlns:xlink="http://www.w3.org/1999/xlink" x="0px" y="0px"
	 viewBox="0 0 506 506" style="enable-background:new 0 0 506 506;" xml:space="preserve">
<circle style="fill:#324A5E;" cx="253" cy="253" r="253"/>
<path style="fill:#FF7058;" d="M325,141.4L325,141.4c1.3,5.9-3.2,11.4-9.3,11.4h-56.9c-6,0-10.5-5.5-9.3-11.4l0,0
	c1.3-5.9-3.2-11.4-9.3-11.4h-61.4c-5.2,0-9.5,4.2-9.5,9.4v256.3c0,5.2,4.2,9.4,9.5,9.4h216.8c5.2,0,9.5-4.2,9.5-9.4V139.5
	c0-5.2-4.2-9.4-9.5-9.4h-61.4C328.2,130,323.7,135.6,325,141.4z"/>
<polygon style="fill:#F4F4F4;" points="194.4,152.9 194.4,324.1 252.9,382.4 379.6,382.4 379.6,152.9 "/>
<rect x="100.9" y="129.4" style="fill:#F9B54C;" width="19.8" height="242"/>
<rect x="120.6" y="129.4" style="fill:#FFD05B;" width="19.8" height="242"/>
<g>
	<path style="fill:#FF7058;" d="M114,371.3h-13.2l10.5,18.9c1.9-0.5,3.9-0.8,6-1L114,371.3z"/>
	<path style="fill:#FF7058;" d="M120.6,389.1c1.1,0,2.2,0.1,3.3,0.2l3.3-17.9H114l3.3,17.9C118.4,389.2,119.5,389.1,120.6,389.1z"/>
	<path style="fill:#FF7058;" d="M129.9,390.2l10.5-18.9h-13.2l-3.3,17.9C126,389.4,128,389.8,129.9,390.2z"/>
</g>
<path style="fill:#FFFFFF;" d="M139.9,102.7h-38.6c-0.3,0-0.5,0.2-0.5,0.5v26.2h39.6v-26.2C140.4,103,140.2,102.7,139.9,102.7z"/>
<rect x="100.9" y="127.5" style="fill:#F1543F;" width="39.6" height="14.3"/>
<path style="fill:#FFFFFF;" d="M129.9,390.2c-1.9-0.5-3.9-0.8-6-1c-1.1-0.1-2.2-0.2-3.3-0.2c-1.1,0-2.2,0.1-3.3,0.2
	c-2.1,0.2-4.1,0.5-6,1l7.3,11.9c0.9,1.5,3.1,1.5,4,0L129.9,390.2z"/>
<g>
	<polygon style="fill:#CED5E0;" points="252.7,324.1 194.2,324.1 252.7,382.4 	"/>
	<rect x="215.2" y="294.9" style="fill:#CED5E0;" width="67" height="5.9"/>
	<rect x="215.2" y="272.5" style="fill:#CED5E0;" width="144.1" height="5.9"/>
	<rect x="215.2" y="250" style="fill:#CED5E0;" width="144.1" height="5.9"/>
	<rect x="215.2" y="227.6" style="fill:#CED5E0;" width="113.8" height="5.9"/>
	<rect x="215.2" y="205.2" style="fill:#CED5E0;" width="144.1" height="5.9"/>
	<rect x="215.2" y="182.7" style="fill:#CED5E0;" width="144.1" height="5.9"/>
</g>
<path style="fill:#F9B54C;" d="M327.7,114.2h-25.4c-1.1-7.5-7.6-13.4-15.4-13.4s-14.4,5.8-15.4,13.4H246l-10.9,51h103.5L327.7,114.2
	z"/>
<rect x="256.3" y="138.2" style="fill:#FFD05B;" width="61" height="9.9"/>
<g>
</g>
<g>
</g>
<g>
</g>
<g>
</g>
<g>
</g>
<g>
</g>
<g>
</g>
<g>
</g>
<g>
</g>
<g>
</g>
<g>
</g>
<g>
</g>
<g>
</g>
<g>
</g>
<g>
</g>
</svg>
