<?xml version="1.0" encoding="iso-8859-1"?>
<!-- Generator: Adobe Illustrator 19.0.0, SVG Export Plug-In . SVG Version: 6.00 Build 0)  -->
<svg version="1.1" id="Layer_1" xmlns="http://www.w3.org/2000/svg" xmlns:xlink="http://www.w3.org/1999/xlink" x="0px" y="0px"
	 viewBox="0 0 505 505" style="enable-background:new 0 0 505 505;" xml:space="preserve">
<circle style="fill:#90DFAA;" cx="252.5" cy="252.5" r="252.5"/>
<path style="fill:#324A5E;" d="M304.3,409.7H115.6c-1.8,0-3.3-1.5-3.3-3.3V98.6c0-1.8,1.5-3.3,3.3-3.3h188.8c1.8,0,3.3,1.5,3.3,3.3
	v307.8C307.7,408.2,306.2,409.7,304.3,409.7z"/>
<rect x="125.9" y="144.1" style="fill:#FFFFFF;" width="168.1" height="228.7"/>
<circle style="fill:#E6E9EE;" cx="210" cy="385.7" r="12.9"/>
<g>
	<path style="fill:#ACB3BA;" d="M239.2,125.1h-58.4c-1,0-1.8-0.8-1.8-1.8l0,0c0-1,0.8-1.8,1.8-1.8h58.4c1,0,1.8,0.8,1.8,1.8l0,0
		C241,124.2,240.2,125.1,239.2,125.1z"/>
	<rect x="202" y="110.3" style="fill:#ACB3BA;" width="15.8" height="3.7"/>
</g>
<path style="fill:#E6E9EE;" d="M404.8,161.1H232.6c-10.8,0-19.5,8.7-19.5,19.5v108.7c0,10.8,8.7,19.5,19.5,19.5h9.8l-4.1,38.9
	l43-38.9h123.4c10.8,0,19.5-8.7,19.5-19.5V180.7C424.3,169.9,415.6,161.1,404.8,161.1z"/>
<g>
	<path style="fill:#FF7058;" d="M256.5,218.3c-1.1,0.9-1.6,2.1-1.6,3.5c0,1.5,0.7,2.6,2,3.5s4.4,1.9,9.2,3.1c4.8,1.2,8.5,3,11.2,5.3
		c2.7,2.4,4,5.8,4,10.3s-1.7,8.2-5.1,11s-7.9,4.2-13.4,4.2c-8,0-15.2-3-21.6-8.9l6.7-8.2c5.5,4.8,10.5,7.2,15.1,7.2
		c2.1,0,3.7-0.4,4.9-1.3c1.2-0.9,1.8-2.1,1.8-3.6s-0.6-2.7-1.9-3.6c-1.3-0.9-3.7-1.8-7.5-2.7c-5.9-1.4-10.2-3.2-12.9-5.5
		c-2.7-2.2-4.1-5.8-4.1-10.6s1.7-8.5,5.2-11.1c3.4-2.6,7.8-3.9,12.9-3.9c3.4,0,6.8,0.6,10.1,1.7c3.4,1.2,6.3,2.8,8.8,4.9l-5.7,8.2
		c-4.4-3.3-8.9-5-13.6-5C259,216.9,257.5,217.4,256.5,218.3z"/>
	<path style="fill:#FF7058;" d="M336.1,226.9l-13.7,27.6h-6.7l-13.6-27.6v31.8h-11.3v-50.6h15.3l13,27.8l13.1-27.8h15.2v50.6h-11.3
		V226.9z"/>
	<path style="fill:#FF7058;" d="M371.7,218.3c-1.1,0.9-1.6,2.1-1.6,3.5c0,1.5,0.7,2.6,2,3.5s4.4,1.9,9.2,3.1c4.8,1.2,8.5,3,11.2,5.3
		c2.7,2.4,4,5.8,4,10.3s-1.7,8.2-5.1,11s-7.9,4.2-13.4,4.2c-8,0-15.2-3-21.6-8.9l6.7-8.2c5.5,4.8,10.5,7.2,15.1,7.2
		c2.1,0,3.7-0.4,4.9-1.3c1.2-0.9,1.8-2.1,1.8-3.6s-0.6-2.7-1.9-3.6c-1.3-0.9-3.7-1.8-7.5-2.7c-5.9-1.4-10.2-3.2-12.9-5.5
		c-2.7-2.2-4.1-5.8-4.1-10.6s1.7-8.5,5.2-11.1c3.4-2.6,7.8-3.9,12.9-3.9c3.4,0,6.8,0.6,10.1,1.7c3.4,1.2,6.3,2.8,8.8,4.9l-5.7,8.2
		c-4.4-3.3-8.9-5-13.6-5C374.2,216.9,372.7,217.4,371.7,218.3z"/>
</g>
<g>
</g>
<g>
</g>
<g>
</g>
<g>
</g>
<g>
</g>
<g>
</g>
<g>
</g>
<g>
</g>
<g>
</g>
<g>
</g>
<g>
</g>
<g>
</g>
<g>
</g>
<g>
</g>
<g>
</g>
</svg>
